<svg version="1.1" viewBox="0.0 0.0 768.0 384.0" fill="none" stroke="none" stroke-linecap="square" stroke-miterlimit="10" xmlns:xlink="http://www.w3.org/1999/xlink" xmlns="http://www.w3.org/2000/svg"><clipPath id="p.0"><path d="m0 0l768.0 0l0 384.0l-768.0 0l0 -384.0z" clip-rule="nonzero"/></clipPath><g clip-path="url(#p.0)"><path fill="#000000" fill-opacity="0.0" d="m0 0l768.0 0l0 384.0l-768.0 0z" fill-rule="evenodd"/><path fill="#cc0000" d="m57.564804 374.49973l10.622284 -184.30827l699.3935 -123.53425l-10.622314 184.30826z" fill-rule="evenodd"/><path fill="#ffffff" d="m0.41837558 317.3429l10.622287 -184.30827l699.3935 -123.534256l-10.622314 184.30827z" fill-rule="evenodd"/><path fill="#000000" fill-opacity="0.0" d="m106.81105 118.68255l466.80316 -82.36221l30.425232 171.84251l-466.80316 82.3622z" fill-rule="evenodd"/><path fill="#1155cc" d="m180.42943 168.64027q7.939865 -1.4008942 15.327835 1.0717621q7.40065 2.4545593 12.588242 8.631531q5.1848755 6.1615753 6.835678 15.485321q1.9885712 11.231567 -1.4006042 21.127228q-3.3765259 9.877548 -11.042862 16.497818q-7.6663513 6.62027 -18.12973 8.466415q-7.939865 1.4009094 -14.231216 -0.34500122q-6.2940826 -1.7612915 -10.429153 -6.743576l-0.23147583 10.433289l-18.64943 3.2904816l2.092453 -96.804825l19.665009 -3.4696808l-0.72987366 32.623062q6.9946747 -8.262924 18.335129 -10.263824zm-0.9781189 55.41919q5.80101 -1.023529 9.83905 -4.6553955q4.035309 -3.6472626 5.668045 -9.123627q1.6300201 -5.4917603 0.46957397 -12.046082q-1.2285614 -6.9389496 -6.0506897 -10.245132q-4.8067474 -3.3088837 -12.115723 -2.019287q-5.6779175 1.0018005 -9.713226 4.649063q-4.03804 3.6318665 -5.6680603 9.123627q-1.6173553 5.4736633 -0.45689392 12.027969q1.2258301 6.9235687 5.973755 10.258713q4.745178 3.319748 12.054169 2.0301514zm118.89375 -75.17691l-1.4896545 70.18582l-18.649445 3.2904816l0.07949829 -6.9000244q-7.085602 9.18335 -19.44162 11.363434q-7.939865 1.4008942 -15.266296 -1.0826263q-7.3264313 -2.4835205 -12.511307 -8.645096q-5.1875916 -6.1769714 -6.838379 -15.500702q-1.9858551 -11.216187 1.3906555 -21.09375q3.3891907 -9.89566 11.055527 -16.51593q7.6663513 -6.6202545 18.006638 -8.444687q15.63353 -2.7583618 23.85881 6.3256226l0.14056396 -9.512863l19.665009 -3.4696808zm-36.317963 60.60733q5.785614 -1.0207977 9.823669 -4.6526794q4.035309 -3.6472626 5.66803 -9.123627q1.6300354 -5.4917603 0.46957397 -12.046082q-1.2285767 -6.9389496 -6.0506897 -10.245117q-4.806732 -3.308899 -12.115723 -2.0193024q-5.80101 1.023529 -9.836319 4.6707764q-4.022644 3.6291656 -5.652664 9.120926q-1.6327515 5.4763794 -0.47229004 12.030685q1.2258301 6.9235687 6.0352936 10.2478485q4.8067474 3.3088837 12.131119 2.016571zm55.085205 -90.43126l19.665009 -3.4696655l-2.0924683 96.804825l-19.665009 3.4696808l2.0924683 -96.80484zm37.941956 -6.694435l19.665009 -3.4696655l-2.0924683 96.80483l-19.665009 3.4696655l2.0924683 -96.80483zm71.4509 84.87611q-10.217194 1.8027191 -18.642548 -0.6138458q-8.4253235 -2.416565 -13.856384 -8.534714q-5.4338074 -6.1335144 -7.0410156 -15.21109q-1.9858398 -11.216187 1.7247009 -21.089218q3.7078247 -9.888412 12.117249 -16.703247q8.409424 -6.81485 20.134583 -8.883614q10.340271 -1.8244324 18.68866 0.60570526q8.3638 2.4274292 13.797607 8.560944q5.4464417 6.1154327 7.050934 15.177612q1.9885864 11.231567 -1.6577148 21.10913q-3.6489868 9.862167 -12.135345 16.690582q-8.470978 6.825699 -20.180725 8.891754zm-1.6176147 -16.485321q5.6625366 -0.9990845 9.700562 -4.630951q4.035309 -3.6472626 5.6680603 -9.123642q1.6300354 -5.4917603 0.46957397 -12.046066q-1.2285767 -6.938965 -5.9891357 -10.255997q-4.7452087 -3.319748 -12.054169 -2.0301514q-5.8010254 1.023529 -9.836334 4.6707764q-4.022644 3.6291656 -5.6526794 9.120926q-1.632721 5.4763794 -0.47229004 12.030685q1.2258606 6.9235687 6.035309 10.2478485q4.806732 3.3088837 12.1311035 2.016571zm70.92856 -21.479034q-0.069122314 1.0435181 0.24414062 2.8128662q1.1604614 6.5543213 8.346344 5.2864532q3.9083862 -0.68959045 7.5148926 -3.8010712l5.369049 13.475204q-5.8385925 5.2029877 -16.163483 7.024704q-9.586304 1.6914062 -16.280823 -2.3315887q-6.694519 -4.0229797 -8.255432 -12.8390045q-0.44674683 -2.5232544 -0.4178772 -6.0348053l0.58828735 -28.314163l-10.463379 1.8461456l0.33813477 -15.656273l10.463379 -1.8461456l0.35458374 -17.08715l19.664978 -3.4696655l-0.35455322 17.087143l16.895264 -2.98098l-0.35351562 15.658989l-16.879883 2.9782715l-0.6101074 28.19107zm31.726685 -71.887405l23.450317 -4.137535l-5.298828 60.32264l-15.633545 2.7583618l-2.5179443 -58.943466zm11.398926 90.013596q-5.047058 0.8904877 -8.872131 -1.623764q-3.8250122 -2.5142517 -4.6068115 -6.929947q-0.93707275 -5.292679 2.107666 -9.336365q3.0601807 -4.0463867 8.491882 -5.0047607q4.9085693 -0.86605835 8.711792 1.525116q3.800537 2.375763 4.5823364 6.7914734q0.91534424 5.1696014 -2.109436 9.416q-3.012085 4.228302 -8.305298 5.1622467z" fill-rule="nonzero"/><path fill="#000000" fill-opacity="0.0" d="m451.4226 230.40166l333.85828 -58.92914l13.543274 76.37796l-333.85825 58.929123z" fill-rule="evenodd"/><path fill="#ffffff" d="m480.18124 274.81512l13.909973 -2.4552612l-0.12338257 6.4635925l-25.065643 4.4243164l0.11898804 -5.145874l12.984253 -14.477356q2.3460693 -2.698883 3.140442 -4.3940125q0.791626 -1.7105103 0.49972534 -3.35672q-0.2946167 -1.6615753 -1.7155762 -2.4262238q-1.4236755 -0.7800293 -3.7933044 -0.36177063q-1.9849548 0.35035706 -3.6704407 1.5839996q-1.6882324 1.2182465 -2.7630615 3.1215363l-5.8175964 -2.8286896q1.537323 -3.1432037 4.7871704 -5.3986816q3.2652588 -2.2582092 7.4813232 -3.0023804q3.4467468 -0.6083832 6.264435 0.06838989q2.8303528 0.65867615 4.62146 2.4369202q1.806488 1.7755127 2.2593384 4.329422q0.5456238 3.0769958 -0.6849365 6.070862q-1.2151794 2.9911194 -4.8375244 6.9942017l-7.595642 8.353729zm31.757233 1.4234009q-5.5393677 0.9777527 -9.344543 -1.777771q-3.8078918 -2.7709045 -4.84729 -8.632599q-1.0557556 -5.9539795 0.26617432 -11.296341q1.3191833 -5.3577423 4.727295 -8.958084q3.4081116 -3.6003418 8.424347 -4.4857483q5.5239563 -0.9750366 9.331879 1.7958679q3.8051758 2.7555237 4.8445435 8.617218q1.0557861 5.95401 -0.26342773 11.311737q-1.3218994 5.342346 -4.7300415 8.942688q-3.408081 3.6003418 -8.408936 4.483032zm-0.44070435 -6.6020203q2.738922 -0.48342896 4.321869 -3.1904297q1.595581 -2.7250671 2.00177 -6.4302063q0.42163086 -3.7078552 -0.15673828 -6.9694824q-0.5619507 -3.1693115 -2.1399536 -4.461563q-1.5653076 -1.3103638 -3.9195557 -0.89482117q-2.754303 0.48616028 -4.3499146 3.2112427q-1.5829163 2.7069855 -2.0045166 6.414856q-0.40621948 3.7051086 0.16940308 6.951355q0.5619812 3.1693115 2.1273193 4.4796753q1.5806885 1.3076477 3.9503174 0.8893738zm28.24289 -5.334198l13.910034 -2.4552307l-0.123413086 6.4635925l-25.065674 4.4243164l0.119018555 -5.1459045l12.984253 -14.477341q2.3460693 -2.698883 3.140442 -4.3940125q0.791626 -1.7105255 0.49969482 -3.35672q-0.2946167 -1.6615753 -1.7155762 -2.4262238q-1.423645 -0.7800293 -3.793274 -0.36177063q-1.9849243 0.35035706 -3.6704712 1.5839996q-1.6882324 1.2182465 -2.7630615 3.1215515l-5.817566 -2.8287048q1.5372925 -3.1432037 4.7871704 -5.3986816q3.2652588 -2.2582092 7.4813232 -3.0023804q3.4467163 -0.6083832 6.2644043 0.06838989q2.8303833 0.65867615 4.62146 2.436905q1.8065186 1.775528 2.2593384 4.3294373q0.5456543 3.0769958 -0.6849365 6.0708466q-1.2151489 2.9911346 -4.8375244 6.994217l-7.595642 8.353714zm30.409363 -33.038773l-0.75115967 34.24565l-7.6474 1.349823l0.6086426 -27.88974l-6.616455 1.1678772l0.14245605 -6.355896l14.263916 -2.5177155zm6.0164795 16.280151l13.37146 -2.3601837l-0.13726807 6.116974l-13.371399 2.3601837l0.13720703 -6.116974zm27.482422 5.4782257l13.909973 -2.455246l-0.123413086 6.4635773l-25.065674 4.424347l0.119018555 -5.1459045l12.984253 -14.477341q2.3460693 -2.698883 3.140442 -4.3940125q0.791626 -1.7105255 0.49969482 -3.35672q-0.2946167 -1.6615753 -1.7155762 -2.4262238q-1.423645 -0.7800293 -3.793274 -0.36177063q-1.9849243 0.35035706 -3.6704712 1.5839844q-1.6882324 1.2182465 -2.7630615 3.1215515l-5.817566 -2.8287048q1.5372925 -3.1431885 4.7871704 -5.3986816q3.2652588 -2.258194 7.4813232 -3.0023804q3.4467163 -0.6083679 6.2644043 0.06840515q2.8303833 0.65867615 4.62146 2.436905q1.8065186 1.775528 2.2593994 4.3294373q0.54559326 3.0769958 -0.68499756 6.0708466q-1.2151489 2.9911346 -4.8375244 6.994217l-7.595581 8.353714zm31.757202 1.4234161q-5.5393677 0.9777527 -9.344543 -1.777771q-3.8079224 -2.7709045 -4.84729 -8.632599q-1.0557861 -5.9539948 0.26617432 -11.296356q1.3192139 -5.357727 4.727295 -8.958069q3.408142 -3.6003418 8.424316 -4.4857483q5.523987 -0.9750366 9.331909 1.7958679q3.8051758 2.7555237 4.8445435 8.617203q1.0557861 5.95401 -0.26342773 11.311752q-1.3218994 5.342346 -4.7300415 8.942688q-3.408081 3.6003418 -8.408936 4.483032zm-0.44067383 -6.6020203q2.7388916 -0.4834442 4.3218384 -3.1904297q1.595581 -2.7250824 2.00177 -6.4302216q0.42163086 -3.7078552 -0.15673828 -6.969467q-0.5619507 -3.1693115 -2.1399536 -4.4615784q-1.5653076 -1.3103485 -3.9195557 -0.8948059q-2.7543335 0.48616028 -4.3499146 3.2112427q-1.5829468 2.7069855 -2.0045166 6.4148407q-0.40625 3.705124 0.16937256 6.9513702q0.5620117 3.1693115 2.1273193 4.47966q1.5807495 1.3076477 3.9503784 0.88938904zm28.242859 -5.334198l13.909973 -2.455246l-0.12335205 6.4635925l-25.065674 4.4243164l0.119018555 -5.1458893l12.984253 -14.477341q2.3460693 -2.698883 3.140442 -4.3940277q0.791626 -1.7105103 0.49969482 -3.3567047q-0.2946167 -1.6615906 -1.7155762 -2.4262238q-1.423645 -0.78004456 -3.793274 -0.36177063q-1.9849243 0.35035706 -3.6704712 1.5839844q-1.6882324 1.2182465 -2.7630615 3.1215515l-5.817566 -2.8287048q1.5372925 -3.1431885 4.7871704 -5.3986816q3.2652588 -2.258194 7.4813232 -3.0023804q3.4467163 -0.6083679 6.2644043 0.06840515q2.8303833 0.65867615 4.62146 2.436905q1.8065186 1.7755127 2.2593384 4.3294373q0.5456543 3.0769958 -0.6849365 6.0708466q-1.2151489 2.9911346 -4.8375244 6.994217l-7.595642 8.353714zm27.888977 -4.9226685l13.909973 -2.455246l-0.123413086 6.4635925l-25.065613 4.4243317l0.11895752 -5.1459045l12.984253 -14.477341q2.3460693 -2.698883 3.140442 -4.3940125q0.791626 -1.7105255 0.49975586 -3.35672q-0.2946167 -1.6615753 -1.7155762 -2.4262238q-1.423706 -0.7800293 -3.793335 -0.36177063q-1.9849243 0.35035706 -3.6704102 1.5839996q-1.6882324 1.2182465 -2.7630615 3.1215515l-5.817627 -2.8287048q1.5373535 -3.1432037 4.7871704 -5.3986816q3.2652588 -2.2582092 7.4813232 -3.0023804q3.4467773 -0.6083832 6.2644653 0.06838989q2.8303223 0.65867615 4.62146 2.436905q1.8064575 1.775528 2.2593384 4.3294373q0.54559326 3.0769958 -0.6849365 6.0708466q-1.21521 2.9911346 -4.8375244 6.994217l-7.595642 8.353714z" fill-rule="nonzero"/></g></svg>